<?xml version="1.0" standalone="no"?>
<!DOCTYPE svg PUBLIC "-//W3C//DTD SVG 20010904//EN"
 "http://www.w3.org/TR/2001/REC-SVG-20010904/DTD/svg10.dtd">
<svg version="1.0" xmlns="http://www.w3.org/2000/svg"
 width="500.000000pt" height="500.000000pt" viewBox="0 0 500.000000 500.000000"
 preserveAspectRatio="xMidYMid meet">

<g transform="translate(0.000000,500.000000) scale(0.100000,-0.100000)"
fill="#000000" stroke="none">
<path d="M0 2500 l0 -2500 2500 0 2500 0 0 2500 0 2500 -2500 0 -2500 0 0
-2500z m2412 869 c24 -12 53 -30 65 -41 20 -19 23 -19 39 -4 42 42 183 92 197
70 3 -5 -10 -10 -28 -11 -55 -3 -120 -55 -160 -129 -17 -32 -17 -36 0 -99 9
-36 21 -65 27 -65 5 0 6 -5 2 -12 -5 -8 -2 -9 10 -5 11 5 15 3 10 -5 -5 -8 -2
-9 11 -4 15 5 16 4 6 -8 -17 -21 -4 -38 22 -30 22 6 22 6 2 -10 -15 -12 -16
-15 -5 -16 13 0 13 -1 0 -10 -12 -8 -12 -10 -1 -10 8 0 12 -3 8 -6 -7 -7 4
-21 61 -80 41 -43 44 -44 105 -43 34 0 76 6 93 12 38 15 84 51 84 67 0 6 5 8
11 4 23 -14 -111 -124 -152 -124 -14 0 -17 -15 -21 -98 -3 -54 -10 -107 -17
-117 -12 -20 -12 -20 -7 0 15 63 -1 162 -30 186 -8 6 -14 17 -14 24 0 6 -9 20
-20 30 -11 10 -20 16 -20 12 0 -3 -24 1 -52 9 -77 20 -98 18 -99 -8 -2 -22 -2
-22 -6 1 -4 19 -7 21 -14 10 -6 -10 -9 -10 -9 -1 0 21 -30 13 -41 -10 -8 -21
-9 -20 -4 5 4 19 2 26 -5 22 -6 -4 -17 -1 -25 5 -10 9 -15 9 -15 1 0 -6 -20
-16 -45 -22 -25 -6 -48 -15 -50 -20 -3 -4 -12 -6 -20 -3 -9 4 -18 -1 -21 -12
-4 -11 -15 -28 -24 -39 -40 -47 -54 -163 -23 -197 9 -10 11 -18 5 -18 -6 0
-16 9 -22 20 -16 29 -28 147 -20 191 7 38 6 39 -18 32 -19 -4 -23 -3 -17 7 5
9 4 11 -4 6 -13 -8 -68 23 -97 55 -18 21 -18 21 26 -2 31 -17 66 -25 115 -27
l71 -4 47 46 c26 26 47 51 47 56 0 6 8 10 18 11 14 0 14 2 -3 9 -18 8 -18 9 5
10 23 1 23 2 5 10 -11 5 -14 9 -7 9 8 1 10 6 6 14 -6 9 -5 9 7 0 12 -10 15 -8
16 10 1 11 -3 28 -10 37 -10 13 -10 13 4 3 22 -18 50 14 52 60 1 19 5 33 9 31
3 -2 9 14 13 37 5 30 3 45 -9 58 -9 10 -16 22 -16 27 0 5 -21 31 -46 57 -33
33 -57 48 -83 52 -62 11 -68 15 -14 10 28 -2 71 -14 95 -26z m223 -299 c-3 -5
-11 -10 -16 -10 -6 0 -7 5 -4 10 3 6 11 10 16 10 6 0 7 -4 4 -10z m25 -14 c0
-2 -7 -7 -16 -10 -8 -3 -12 -2 -9 4 6 10 25 14 25 6z m-283 -32 c-3 -3 -12 -4
-19 -1 -8 3 -5 6 6 6 11 1 17 -2 13 -5z m-14 -21 c-7 -2 -19 -2 -25 0 -7 3 -2
5 12 5 14 0 19 -2 13 -5z m-96 -29 c-3 -3 -12 -4 -19 -1 -8 3 -5 6 6 6 11 1
17 -2 13 -5z m66 -21 c-7 -2 -19 -2 -25 0 -7 3 -2 5 12 5 14 0 19 -2 13 -5z
m-288 -33 c3 -5 1 -10 -4 -10 -6 0 -11 5 -11 10 0 6 2 10 4 10 3 0 8 -4 11
-10z m432 -122 c-3 -8 -6 -5 -6 6 -1 11 2 17 5 13 3 -3 4 -12 1 -19z m50 0
c-3 -8 -6 -5 -6 6 -1 11 2 17 5 13 3 -3 4 -12 1 -19z m-8 -38 c0 -10 -3 -8 -9
5 -12 27 -12 43 0 25 5 -8 9 -22 9 -30z m-20 -25 c0 -5 -4 -3 -9 5 -5 8 -9 22
-9 30 0 16 17 -16 18 -35z m-409 -276 c92 -41 140 -113 148 -219 5 -79 -8
-134 -48 -188 -49 -68 -98 -94 -185 -100 -66 -4 -81 -2 -129 22 -143 70 -187
263 -93 403 64 93 201 130 307 82z m911 -209 c44 -118 86 -232 94 -252 l15
-38 -34 0 c-33 0 -35 2 -58 65 l-23 66 -110 -3 -109 -3 -24 -62 c-22 -57 -26
-63 -53 -63 -16 0 -29 3 -29 8 0 4 41 119 92 255 l92 248 34 -3 35 -3 78 -215z
m249 -35 l0 -255 -35 0 -35 0 0 248 c0 137 3 252 7 255 3 4 19 7 35 7 l28 0 0
-255z m-724 99 c32 -15 64 -57 64 -84 0 -21 -54 -10 -75 16 -17 21 -30 27 -64
27 -45 0 -61 -13 -61 -48 0 -26 23 -40 93 -55 80 -16 117 -49 117 -104 0 -50
-21 -83 -66 -102 -74 -31 -170 -8 -205 50 -26 43 -24 56 10 56 19 0 34 -8 45
-25 33 -50 133 -52 150 -2 14 38 -5 54 -90 79 -79 22 -110 44 -120 83 -23 91
100 157 202 109z m-422 -600 c22 -21 20 -50 -4 -74 -24 -24 -25 -27 -2 -33 15
-4 15 -5 0 -6 -26 -2 -78 48 -78 74 0 28 24 55 50 55 10 0 26 -7 34 -16z m59
-70 c17 -17 37 7 37 46 0 22 5 40 10 40 16 0 12 -76 -5 -90 -8 -7 -25 -10 -40
-6 -23 6 -25 11 -24 54 l2 47 6 -42 c4 -24 10 -46 14 -49z m99 39 c-5 -65 -12
-68 -12 -5 0 29 4 52 8 52 5 0 7 -21 4 -47z m92 35 c-4 -7 -18 -27 -31 -45
l-24 -32 33 -4 c29 -3 28 -4 -10 -5 -46 -2 -46 -2 -10 50 23 34 23 36 -9 41
-20 3 -15 4 15 6 32 1 41 -2 36 -11z m56 -29 l14 -42 18 42 c23 55 38 52 38
-9 0 -30 -4 -50 -11 -50 -7 0 -10 12 -7 30 3 17 1 30 -3 30 -4 0 -10 -13 -14
-30 -9 -39 -21 -38 -39 3 l-14 32 -1 -32 c-2 -54 -21 -37 -21 17 0 63 21 67
40 9z m161 -12 c10 -26 15 -47 10 -47 -5 0 -11 7 -15 15 -7 20 -42 19 -50 -1
-4 -9 -9 -15 -11 -12 -9 8 27 99 37 96 6 -2 19 -25 29 -51z m94 43 c4 -7 -2
-9 -19 -4 -34 8 -34 -13 -1 -28 33 -15 31 -52 -4 -56 -13 -2 -28 1 -34 7 -7 7
-2 10 18 8 35 -3 44 19 12 27 -25 6 -42 31 -31 47 7 12 51 11 59 -1z m88 3
c-20 -4 -23 -11 -25 -51 l-2 -47 -3 47 c-3 33 -9 48 -21 51 -9 3 3 5 28 4 25
0 35 -2 23 -4z m75 0 c-34 -5 -38 -32 -5 -34 l22 -2 -22 -4 c-34 -6 -30 -41 5
-46 22 -3 20 -4 -10 -6 l-38 -1 0 50 0 50 38 -1 c30 -2 32 -3 10 -6z m108 -34
c1 -20 4 -41 8 -48 4 -6 2 -11 -4 -11 -6 0 -15 11 -20 25 -13 33 -38 32 -43
-2 -2 -16 -5 -4 -6 25 l-1 53 33 -3 c29 -3 32 -6 33 -39z"/>
<path d="M2488 2883 c6 -2 18 -2 25 0 6 3 1 5 -13 5 -14 0 -19 -2 -12 -5z"/>
<path d="M1893 2401 c-75 -47 -111 -157 -84 -259 14 -50 59 -105 101 -122 46
-19 149 -9 187 18 100 71 101 278 1 352 -46 34 -159 40 -205 11z"/>
<path d="M2848 2283 c-59 -160 -63 -143 36 -143 47 0 86 4 86 9 0 11 -68 199
-79 218 -5 9 -20 -19 -43 -84z"/>
<path d="M2053 1713 c-7 -2 -13 -20 -13 -38 0 -33 18 -47 48 -38 15 6 16 55 0
71 -13 13 -16 13 -35 5z"/>
<path d="M2535 1697 c-8 -19 -2 -31 13 -26 5 2 6 13 2 24 -7 19 -8 19 -15 2z"/>
<path d="M2880 1705 c0 -8 9 -15 20 -15 11 0 20 7 20 15 0 8 -9 15 -20 15 -11
0 -20 -7 -20 -15z"/>
</g>
</svg>
